<?xml version="1.0" encoding="iso-8859-1"?>
<!-- Generator: Adobe Illustrator 19.0.0, SVG Export Plug-In . SVG Version: 6.00 Build 0)  -->
<svg version="1.1" id="Layer_1" xmlns="http://www.w3.org/2000/svg" xmlns:xlink="http://www.w3.org/1999/xlink" x="0px" y="0px"
	 viewBox="0 0 512 512" style="enable-background:new 0 0 512 512;" xml:space="preserve">
<path style="fill:#68B9D8;" d="M256.106,337.206c-0.068-0.001-0.137-0.001-0.205,0c-71.547,0.98-131.992,59.691-131.992,128.204
	v39.073c0,4.152,3.359,7.517,7.503,7.517h249.183c4.144,0,7.503-3.365,7.503-7.517V465.41
	C388.099,396.898,327.653,338.187,256.106,337.206z"/>
<path style="fill:#3695B2;" d="M256.106,337.206c-0.068-0.001-0.137-0.001-0.205,0c-4.54,0.062-9.035,0.359-13.473,0.874
	c65.501,7.6,118.519,63.165,118.519,127.33v39.073c0,4.152-3.359,7.517-7.503,7.517h27.151c4.144,0,7.503-3.365,7.503-7.517V465.41
	C388.099,396.898,327.653,338.187,256.106,337.206z"/>
<path style="fill:#F2464F;" d="M294.97,450.892l-16.917-73.571c-0.8-3.48-3.893-5.946-7.459-5.946h-29.178
	c-3.565,0-6.659,2.466-7.459,5.946l-16.917,73.571c-0.619,2.693,0.256,5.512,2.291,7.378l31.507,28.89
	c1.463,1.34,3.314,2.012,5.167,2.012s3.705-0.67,5.167-2.012l31.507-28.89C294.713,456.403,295.589,453.585,294.97,450.892z"/>
<path style="fill:#D3333C;" d="M278.745,380.052l11.007-22.588l0,0l0.011-0.024l3.208-6.585c0.025-0.052,0.043-0.107,0.067-0.16
	l3.25-6.69c-12.731-4.219-26.244-6.609-40.182-6.801c-0.068-0.001-0.137-0.001-0.205,0c-13.875,0.19-27.33,2.56-40.011,6.744
	l2.736,5.87c0.116,0.353,0.246,0.701,0.41,1.037l14.227,29.195h45.481V380.052z"/>
<path style="fill:#AF273B;" d="M270.431,338.199l-20.133,41.853h5.706h22.741l17.539-36.048
	C287.968,341.25,279.315,339.292,270.431,338.199z"/>
<path style="fill:#F7CB4F;" d="M171.603,108.464c-1.663-5.128-6.003-8.794-11.329-9.57l-34.116-4.967l-15.256-30.97
	c-2.381-4.834-7.204-7.837-12.585-7.837c-5.38,0-10.203,3.003-12.584,7.837l-15.257,30.97L36.36,98.894
	c-5.325,0.775-9.666,4.442-11.328,9.57c-1.663,5.127-0.301,10.648,3.551,14.41l24.686,24.107l-5.828,34.04
	c-0.909,5.313,1.229,10.582,5.583,13.75c2.46,1.791,5.338,2.7,8.235,2.7c2.23,0,4.473-0.539,6.544-1.63l30.514-16.071l30.513,16.071
	c4.763,2.508,10.425,2.099,14.78-1.07c4.353-3.168,6.492-8.437,5.582-13.75l-5.828-34.04l24.686-24.107
	C171.904,119.112,173.265,113.59,171.603,108.464z"/>
<path style="fill:#FBAB00;" d="M171.603,108.464c-1.663-5.128-6.003-8.794-11.329-9.57l-0.161-0.023l-39.172,38.057
	c-1.981,1.935-2.885,4.723-2.418,7.455l8.634,50.578l1.673,0.881c4.763,2.508,10.425,2.099,14.78-1.07
	c4.353-3.168,6.492-8.437,5.582-13.75l-5.828-34.04l24.686-24.107C171.904,119.112,173.265,113.59,171.603,108.464z"/>
<path style="fill:#F7CB4F;" d="M329.431,53.342c-1.663-5.127-6.003-8.793-11.328-9.569l-34.116-4.967l-15.256-30.97
	C266.349,3.003,261.527,0,256.146,0c-5.381,0-10.203,3.003-12.585,7.837l-15.257,30.97l-34.116,4.967
	c-5.325,0.775-9.666,4.442-11.327,9.569c-1.663,5.127-0.302,10.649,3.55,14.411l24.686,24.107l-5.827,34.04
	c-0.909,5.313,1.229,10.582,5.583,13.75c4.353,3.168,10.015,3.578,14.779,1.07l30.514-16.072l30.514,16.072
	c2.072,1.09,4.313,1.63,6.542,1.63c2.898,0,5.775-0.909,8.235-2.7c4.354-3.168,6.492-8.437,5.583-13.75l-5.827-34.039l24.686-24.107
	C329.733,63.991,331.093,58.469,329.431,53.342z"/>
<path style="fill:#FBAB00;" d="M329.431,53.342c-1.663-5.127-6.003-8.793-11.328-9.569l-0.184-0.027L278.77,81.808
	c-1.981,1.935-2.885,4.723-2.418,7.455l8.484,50.498l1.824,0.96c2.072,1.09,4.313,1.63,6.542,1.63c2.898,0,5.775-0.909,8.235-2.7
	c4.354-3.168,6.492-8.437,5.583-13.75l-5.827-34.039l24.686-24.107C329.733,63.991,331.093,58.469,329.431,53.342z"/>
<path style="fill:#FFC89F;" d="M256.004,166.672c-36.969,0-67.046,30.132-67.046,67.168v51.331
	c0,37.037,30.077,67.168,67.046,67.168c36.97,0,67.046-30.131,67.046-67.168V233.84C323.05,196.804,292.973,166.672,256.004,166.672
	z"/>
<path style="fill:#F7B081;" d="M256.004,166.672c-4.696,0-9.277,0.491-13.703,1.416c30.419,6.354,53.343,33.421,53.343,65.753
	v51.332c0,32.332-22.924,59.398-53.343,65.753c4.426,0.924,9.008,1.416,13.703,1.416c36.97,0,67.046-30.131,67.046-67.168V233.84
	C323.05,196.804,292.973,166.672,256.004,166.672z"/>
<path d="M323.05,259.499V233.84c0-37.037-30.076-67.168-67.046-67.168c-36.969,0-67.046,30.132-67.046,67.168v25.666h7.503
	c52.044,0,71.003-35.205,71.003-35.205s13.253,35.035,48.083,35.198L323.05,259.499L323.05,259.499z"/>
<path style="fill:#F7CB4F;" d="M486.968,108.464c-1.663-5.128-6.003-8.794-11.329-9.57l-34.116-4.967l-15.257-30.97
	c-2.381-4.834-7.204-7.837-12.585-7.837c-5.38,0-10.203,3.003-12.584,7.837l-15.256,30.97l-34.116,4.967
	c-5.325,0.775-9.666,4.442-11.328,9.57c-1.663,5.127-0.301,10.648,3.551,14.41l24.686,24.107l-5.828,34.04
	c-0.909,5.313,1.229,10.582,5.583,13.75c2.46,1.791,5.338,2.7,8.235,2.7c2.231,0,4.473-0.539,6.544-1.63l30.514-16.071
	l30.513,16.071c4.763,2.508,10.425,2.099,14.78-1.07c4.354-3.168,6.492-8.437,5.583-13.75l-5.828-34.04l24.686-24.107
	C487.269,119.112,488.631,113.59,486.968,108.464z"/>
<path style="fill:#FBAB00;" d="M486.968,108.464c-1.663-5.128-6.003-8.794-11.329-9.57l-0.16-0.023l-39.172,38.057
	c-1.981,1.935-2.885,4.723-2.418,7.455l8.634,50.578l1.674,0.881c4.763,2.508,10.425,2.099,14.78-1.07
	c4.354-3.168,6.492-8.437,5.583-13.75l-5.828-34.04l24.686-24.107C487.269,119.112,488.631,113.59,486.968,108.464z"/>
<path style="fill:#D3333C;" d="M278.68,380.052h-28.264l16.685,72.56l-26.97,24.729l10.706,9.817
	c1.463,1.34,3.314,2.011,5.167,2.011s3.705-0.67,5.167-2.011l31.507-28.89c2.035-1.866,2.91-4.685,2.291-7.378L278.68,380.052z"/>
<g>
</g>
<g>
</g>
<g>
</g>
<g>
</g>
<g>
</g>
<g>
</g>
<g>
</g>
<g>
</g>
<g>
</g>
<g>
</g>
<g>
</g>
<g>
</g>
<g>
</g>
<g>
</g>
<g>
</g>
</svg>
